<?xml version="1.0" encoding="UTF-8" standalone="no" ?>
<!DOCTYPE svg PUBLIC "-//W3C//DTD SVG 1.1//EN" "http://www.w3.org/Graphics/SVG/1.1/DTD/svg11.dtd">
<svg xmlns="http://www.w3.org/2000/svg" xmlns:xlink="http://www.w3.org/1999/xlink" version="1.1" width="640" height="640" viewBox="0 0 640 640" xml:space="preserve">
<g transform="matrix(5 0 0 5 320 320)" id="hw9DBj2nKEFG2huQzFYZS"  >
<path style="stroke: none; stroke-width: 1; stroke-dasharray: none; stroke-linecap: butt; stroke-dashoffset: 0; stroke-linejoin: miter; stroke-miterlimit: 4; fill: rgb(0,0,0); fill-rule: evenodd; opacity: 1;" vector-effect="non-scaling-stroke"  transform=" translate(0, 0)" d="M 54.065 -22.71 L 54.065 19.380000000000003 L 59.084999999999994 19.380000000000003 C 59.904999999999994 19.380000000000003 60.584999999999994 20.050000000000004 60.584999999999994 20.87 L 60.584999999999994 58.739999999999995 C 60.584999999999994 59.559999999999995 59.91499999999999 60.23 59.084999999999994 60.23 L -59.95500000000001 60.23 C -60.77500000000001 60.23 -61.445000000000014 59.559999999999995 -61.445000000000014 58.739999999999995 L -61.445000000000014 20.869999999999997 C -61.445000000000014 20.049999999999997 -60.77500000000001 19.38 -59.95500000000001 19.38 L -54.93500000000002 19.38 L -54.93500000000002 -23.970000000000002 C -55.43500000000002 -24.35 -55.905000000000015 -24.76 -56.35500000000002 -25.200000000000003 C -58.78500000000002 -27.630000000000003 -60.28500000000002 -30.980000000000004 -60.28500000000002 -34.660000000000004 L -60.28500000000002 -39.86000000000001 L -60.28500000000002 -39.93000000000001 L -60.28500000000002 -39.940000000000005 C -60.28500000000002 -40.2 -60.225000000000016 -40.46000000000001 -60.09500000000002 -40.690000000000005 L -49.56500000000002 -59.45 C -49.28500000000002 -59.95 -48.76500000000002 -60.230000000000004 -48.23500000000002 -60.230000000000004 L 48.54499999999998 -60.230000000000004 C 49.15499999999998 -60.230000000000004 49.67499999999998 -59.88 49.92499999999998 -59.370000000000005 L 61.21499999999998 -40.74000000000001 C 61.35499999999998 -40.52000000000001 61.42499999999998 -40.27000000000001 61.43499999999998 -40.03000000000001 L 61.43499999999998 -40.03000000000001 C 61.44499999999998 -39.98000000000001 61.44499999999998 -39.93000000000001 61.44499999999998 -39.87000000000001 L 61.44499999999998 -34.67000000000001 C 61.44499999999998 -30.99000000000001 59.93499999999998 -27.640000000000008 57.51499999999998 -25.210000000000008 C 56.494999999999976 -24.200000000000006 55.34499999999998 -23.360000000000007 54.064999999999976 -22.710000000000008 z M 42.385 19.38 L 42.385 -22.529999999999998 C 40.964999999999996 -23.2 39.675 -24.11 38.585 -25.199999999999996 C 37.625 -26.159999999999997 36.815 -27.259999999999994 36.175 -28.469999999999995 C 35.544999999999995 -27.259999999999994 34.724999999999994 -26.159999999999997 33.765 -25.199999999999996 C 31.335 -22.769999999999996 27.985 -21.269999999999996 24.305 -21.269999999999996 C 20.625 -21.269999999999996 17.275 -22.779999999999998 14.844999999999999 -25.199999999999996 C 13.884999999999998 -26.159999999999997 13.075 -27.259999999999994 12.434999999999999 -28.469999999999995 C 11.804999999999998 -27.259999999999994 10.985 -26.159999999999997 10.024999999999999 -25.199999999999996 C 7.594999999999999 -22.769999999999996 4.244999999999998 -21.269999999999996 0.5649999999999977 -21.269999999999996 C -3.1150000000000024 -21.269999999999996 -6.4650000000000025 -22.779999999999998 -8.895000000000003 -25.199999999999996 C -9.855000000000004 -26.159999999999997 -10.665000000000003 -27.259999999999994 -11.305000000000003 -28.469999999999995 C -11.935000000000004 -27.259999999999994 -12.755000000000003 -26.159999999999997 -13.715000000000003 -25.199999999999996 C -16.145000000000003 -22.769999999999996 -19.495000000000005 -21.269999999999996 -23.175000000000004 -21.269999999999996 C -26.855000000000004 -21.269999999999996 -30.205000000000005 -22.779999999999998 -32.635000000000005 -25.199999999999996 C -33.595000000000006 -26.159999999999997 -34.40500000000001 -27.259999999999994 -35.045 -28.469999999999995 C -35.675000000000004 -27.259999999999994 -36.495000000000005 -26.159999999999997 -37.455 -25.199999999999996 C -39.055 -23.599999999999994 -41.045 -22.399999999999995 -43.275 -21.769999999999996 L -43.275 19.39 L 42.385 19.400000000000002 z M -56.205 -41.39 L -36.235 -41.39 L -32.565 -57.18 L -47.345 -57.18 z M 12.285 -57.18 L 13.815 -41.39 L 34.195 -41.39 L 30.025 -57.18 z M 10.755 -41.39 L 9.235000000000001 -57.18 L -8.124999999999998 -57.18 L -9.624999999999998 -41.39 z M -12.675 -41.39 L -11.175 -57.18 L -29.435000000000002 -57.18 L -33.105000000000004 -41.39 z M 33.175 -57.18 L 37.345 -41.39 L 57.254999999999995 -41.39 L 47.684999999999995 -57.18 z M 37.705 -38.34 L 37.705 -34.67 C 37.705 -31.830000000000002 38.864999999999995 -29.240000000000002 40.745 -27.37 C 42.614999999999995 -25.5 45.205 -24.330000000000002 48.044999999999995 -24.330000000000002 C 50.88499999999999 -24.330000000000002 53.474999999999994 -25.490000000000002 55.34499999999999 -27.37 C 57.21499999999999 -29.240000000000002 58.38499999999999 -31.830000000000002 58.38499999999999 -34.67 L 58.38499999999999 -38.34 z M 13.965 -38.34 L 13.965 -34.67 C 13.965 -31.830000000000002 15.125 -29.240000000000002 17.005 -27.37 C 18.875 -25.5 21.465 -24.330000000000002 24.305 -24.330000000000002 C 27.145 -24.330000000000002 29.735 -25.490000000000002 31.605 -27.37 C 33.475 -29.240000000000002 34.645 -31.830000000000002 34.645 -34.67 L 34.645 -38.34 z M -9.765 -38.34 L -9.765 -34.67 C -9.765 -31.830000000000002 -8.605 -29.240000000000002 -6.7250000000000005 -27.37 C -4.855 -25.5 -2.2650000000000006 -24.330000000000002 0.5749999999999993 -24.330000000000002 C 3.414999999999999 -24.330000000000002 6.004999999999999 -25.490000000000002 7.874999999999999 -27.37 C 9.745 -29.240000000000002 10.915 -31.830000000000002 10.915 -34.67 L 10.915 -38.34 z M -33.495 -38.34 L -33.495 -34.67 C -33.495 -31.830000000000002 -32.335 -29.240000000000002 -30.455 -27.37 C -28.584999999999997 -25.5 -25.994999999999997 -24.330000000000002 -23.154999999999998 -24.330000000000002 C -20.314999999999998 -24.330000000000002 -17.724999999999998 -25.490000000000002 -15.854999999999997 -27.37 C -13.984999999999996 -29.240000000000002 -12.814999999999998 -31.830000000000002 -12.814999999999998 -34.67 L -12.814999999999998 -38.34 z M -36.555 -38.34 L -57.235 -38.34 L -57.235 -34.67 C -57.235 -31.830000000000002 -56.075 -29.240000000000002 -54.195 -27.37 C -52.325 -25.5 -49.735 -24.330000000000002 -46.895 -24.330000000000002 C -44.05500000000001 -24.330000000000002 -41.465 -25.490000000000002 -39.595000000000006 -27.37 C -37.72500000000001 -29.240000000000002 -36.55500000000001 -31.830000000000002 -36.55500000000001 -34.67 z M -54.375 25.64 L 53.495000000000005 25.64 C 53.975 25.64 54.37500000000001 26.04 54.37500000000001 26.52 L 54.37500000000001 53.11 C 54.37500000000001 53.589999999999996 53.97500000000001 53.99 53.495000000000005 53.99 L -54.375 53.99 C -54.855 53.99 -55.255 53.6 -55.255 53.11 L -55.255 26.52 C -55.245000000000005 26.03 -54.855000000000004 25.64 -54.375 25.64 z" stroke-linecap="round" />
</g>
</svg>
